# xmcd CD database file
#
# Track frame offsets:
#	183
#	46833
#	102568
#	138908
#	199383
#	247368
#
# Disc length: 3892 seconds
#
# Revision: 0
# Processed by: cddbd v1.5.2PL0 Copyright (c) Steve Scherf et al.
# Submitted via: CDex 1.70beta2
#
DISCID=5a0f3206
DTITLE=STEVE GROSSMAN - MY SECOND PRIME
DYEAR=1990
DGENRE=Jazz
TTITLE0=01-EXTEMPORANEOUS
TTITLE1=02-GIPSY
TTITLE2=03-NEW YORK BOSSA
TTITLE3=04-CHRISTMAS SONG
TTITLE4=05-DISCONNECTION
TTITLE5=06-C.T.A.
EXTD=YEAR: 1990
EXTT0=
EXTT1=
EXTT2=
EXTT3=
EXTT4=
EXTT5=
PLAYORDER=
